<svg width="40" height="40" viewBox="0 0 40 40" fill="none" xmlns="http://www.w3.org/2000/svg">
<path d="M19.6666 3.33332C20.3333 3.33332 21.1666 3.50022 21.8333 3.834C23.8333 4.66848 24.9999 6.67123 24.9999 8.84087L24.9999 11.845L33.6666 11.845C36.3333 11.845 38.3332 14.0146 38.3333 16.6849L38.3333 23.1939C38.3333 25.8642 36.1666 28.0338 33.6666 28.0338L24.9999 28.0338L24.9999 31.2048C24.9999 33.3745 23.8333 35.3772 21.8333 36.2117C19.9999 37.0462 17.8333 36.7124 16.1666 35.3772L3.49992 24.1952C2.33325 23.1939 1.66659 21.6918 1.66659 20.0229C1.66659 18.3539 2.33325 16.8518 3.49992 15.8505L16.1666 4.66848C17.1666 3.83401 18.4999 3.33332 19.6666 3.33332ZM33.6666 24.6959C34.3333 24.6959 34.9999 24.0283 34.9999 23.1939L34.9999 16.8518C34.9999 16.0174 34.3333 15.3498 33.6666 15.3498L23.3333 15.3498C22.3333 15.3498 21.6666 14.6822 21.6666 13.6808L21.6666 9.00776C21.6666 7.83949 20.9999 7.17191 20.3333 7.00502C19.9999 6.83812 19.1666 6.67123 18.3333 7.33881L5.66659 18.5208C5.16659 19.0215 4.83325 19.5222 4.83325 20.1898C4.83325 20.8573 5.16659 21.5249 5.66659 21.8587L18.3333 33.0407C19.1666 33.7083 19.9999 33.5414 20.3333 33.3745C20.9999 32.8738 21.6666 32.2062 21.6666 31.2048L21.6666 26.5318C21.6666 25.5304 22.3333 24.8628 23.3333 24.8628L33.6666 24.8628L33.6666 24.6959Z" fill="#3F72AF"/>
</svg>
