<svg width="44" height="44" viewBox="0 0 44 44" fill="none" xmlns="http://www.w3.org/2000/svg">
<path d="M22.3666 40.3334C21.6333 40.3334 20.7166 40.1498 19.9833 39.7827C17.7833 38.8647 16.4999 36.6617 16.4999 34.2751V30.9706H6.96659C4.03325 30.9706 1.83325 28.584 1.83325 25.6466V18.4868C1.83325 15.5495 4.21659 13.1629 6.96659 13.1629H16.4999V9.67474C16.4999 7.28814 17.7833 5.08512 19.9833 4.16719C21.9999 3.24927 24.3833 3.61644 26.2166 5.08512L40.1499 17.3853C41.4333 18.4868 42.1666 20.1391 42.1666 21.9749C42.1666 23.8108 41.4333 25.463 40.1499 26.5645L26.2166 38.8647C25.1166 39.7827 23.6499 40.3334 22.3666 40.3334ZM6.96659 16.8345C6.23325 16.8345 5.49992 17.5689 5.49992 18.4868V25.463C5.49992 26.381 6.23325 27.1153 6.96659 27.1153H18.3333C19.4333 27.1153 20.1666 27.8496 20.1666 28.9511V34.0915C20.1666 35.3766 20.8999 36.111 21.6333 36.2945C21.9999 36.4781 22.9166 36.6617 23.8333 35.9274L37.7666 23.6272C38.3166 23.0764 38.6833 22.5257 38.6833 21.7913C38.6833 21.057 38.3166 20.3227 37.7666 19.9555L23.8333 7.65531C22.9166 6.92097 21.9999 7.10455 21.6333 7.28814C20.8999 7.83889 20.1666 8.57323 20.1666 9.67474V14.8151C20.1666 15.9166 19.4333 16.651 18.3333 16.651H6.96659V16.8345Z" fill="#3F72AF"/>
</svg>
