<svg width="24" height="24" viewBox="0 0 24 24" fill="none" xmlns="http://www.w3.org/2000/svg">
<path fill-rule="evenodd" clip-rule="evenodd" d="M12.8668 2.9413C12.3189 2.57512 11.6814 2.57512 11.1335 2.9413L11.1136 2.95429L3.90467 7.56277C3.10809 8.07095 2.66683 8.94791 2.66683 9.82668V19.6721C2.66683 20.6015 3.40096 21.3333 4.32106 21.3333H19.6793C20.5994 21.3333 21.3335 20.6015 21.3335 19.6721V9.82668C21.3335 8.91788 20.8528 8.10312 20.073 7.54827L12.8867 2.95429L12.8668 2.9413ZM14.1527 0.994208C12.8253 0.113032 11.175 0.113035 9.84766 0.994217L2.64882 5.59623C2.64898 5.59613 2.64866 5.59633 2.64882 5.59623C1.1472 6.55443 0.333496 8.1919 0.333496 9.82668V19.6721C0.333496 21.8847 2.10682 23.6667 4.32106 23.6667H19.6793C21.8935 23.6667 23.6668 21.8847 23.6668 19.6721V9.82668C23.6668 8.01968 22.6927 6.53605 21.3942 5.62481C21.3805 5.61518 21.3666 5.60585 21.3524 5.59682L14.1527 0.994208Z" fill="#3F72AF"/>
</svg>
