<svg width="46" height="44" viewBox="0 0 46 44" fill="none" xmlns="http://www.w3.org/2000/svg">
<path fill-rule="evenodd" clip-rule="evenodd" d="M29.6318 32.9091C27.4709 34.4237 24.8392 35.3125 22 35.3125C14.6477 35.3125 8.6875 29.3523 8.6875 22C8.6875 14.6477 14.6477 8.6875 22 8.6875C29.3523 8.6875 35.3125 14.6477 35.3125 22C35.3125 23.7843 34.9615 25.4866 34.3247 27.0416C34.499 27.1661 34.6652 27.3071 34.8211 27.4646C34.9041 27.5485 34.9862 27.6285 35.0667 27.7051L35.0897 27.6824L35.7449 28.3446L35.7727 28.3727L36.2522 28.8574C37.2521 26.7831 37.8125 24.457 37.8125 22C37.8125 13.267 30.733 6.1875 22 6.1875C13.267 6.1875 6.1875 13.267 6.1875 22C6.1875 30.733 13.267 37.8125 22 37.8125C25.5233 37.8125 28.7774 36.6602 31.4061 34.7119L29.7137 33.0012L29.7174 32.9976C29.6892 32.9684 29.6607 32.9389 29.6318 32.9091ZM34.0211 37.355C30.7088 39.9518 26.5352 41.5 22 41.5C11.2304 41.5 2.5 32.7696 2.5 22C2.5 11.2304 11.2304 2.5 22 2.5C32.7696 2.5 41.5 11.2304 41.5 22C41.5 25.4931 40.5815 28.7717 38.9729 31.6074L40.7918 33.4458C42.8272 30.1112 44 26.1926 44 22C44 9.84974 34.1503 0 22 0C9.84974 0 0 9.84974 0 22C0 34.1503 9.84974 44 22 44C27.2211 44 32.0174 42.1812 35.7899 39.1427L34.0211 37.355Z" fill="#3F72AF"/>
<mask id="path-2-inside-1_171_3306" fill="white">
<path fill-rule="evenodd" clip-rule="evenodd" d="M35.7727 28.3727C35.7635 28.3633 35.7542 28.354 35.7449 28.3446L35.0897 27.6824L35.0667 27.7051C34.9862 27.6284 34.9041 27.5485 34.8211 27.4646C33.3523 25.98 30.9654 25.9601 29.4898 27.42C28.0142 28.8799 28.0087 31.2668 29.4775 32.7514C29.5605 32.8353 29.6402 32.9175 29.7174 32.9975L29.7137 33.0012L37.2031 40.5711C37.2049 40.5729 37.2066 40.5747 37.2084 40.5765C37.2102 40.5783 37.212 40.58 37.2137 40.5818L37.4502 40.8208L37.4611 40.81C38.9401 42.0579 41.1537 41.9923 42.5558 40.605C43.958 39.2178 44.0472 37.005 42.8152 35.5128L42.8262 35.502L35.7727 28.3727Z"/>
</mask>
<path d="M35.7727 28.3727L33.775 30.3347L33.7822 30.342L35.7727 28.3727ZM35.7449 28.3446L33.7544 30.3139L33.7614 30.3209L35.7449 28.3446ZM35.0897 27.6824L37.0801 25.7131L35.1108 23.7226L33.1204 25.6919L35.0897 27.6824ZM35.0667 27.7051L33.1359 29.7329L35.1041 31.6069L37.036 29.6955L35.0667 27.7051ZM29.7174 32.9975L31.6867 34.988L33.6522 33.0434L31.7326 31.0535L29.7174 32.9975ZM29.7137 33.0012L27.7444 31.0107L25.7539 32.98L27.7232 34.9705L29.7137 33.0012ZM37.2031 40.5711L39.1974 38.6057L39.1936 38.6018L37.2031 40.5711ZM37.2137 40.5818L39.2042 38.6125L39.2003 38.6087L37.2137 40.5818ZM37.4502 40.8208L35.4597 42.7901L37.429 44.7806L39.4195 42.8113L37.4502 40.8208ZM37.4611 40.81L39.2668 38.67L37.311 37.0197L35.4918 38.8195L37.4611 40.81ZM42.8152 35.5128L40.8459 33.5224L39.0268 35.3222L40.6561 37.2955L42.8152 35.5128ZM42.8262 35.502L44.7955 37.4924L46.7859 35.5231L44.8166 33.5327L42.8262 35.502ZM37.7703 26.4107C37.7562 26.3963 37.7422 26.3822 37.7284 26.3683L33.7614 30.3209C33.7662 30.3258 33.7708 30.3304 33.775 30.3346L37.7703 26.4107ZM33.0992 29.6516L33.7544 30.3139L37.7353 26.3753L37.0801 25.7131L33.0992 29.6516ZM37.036 29.6955L37.059 29.6728L33.1204 25.6919L33.0974 25.7146L37.036 29.6955ZM36.9975 25.6773C36.9319 25.6148 36.8704 25.5548 36.8115 25.4953L32.8306 29.4339C32.9377 29.5422 33.0405 29.642 33.1359 29.7329L36.9975 25.6773ZM36.8115 25.4953C34.2664 22.9228 30.1068 22.8708 27.5205 25.4295L31.4591 29.4104C31.8241 29.0493 32.4382 29.0373 32.8306 29.4339L36.8115 25.4953ZM27.5205 25.4295C24.9343 27.9882 24.9419 32.1482 27.487 34.7207L31.4679 30.7821C31.0755 30.3855 31.0942 29.7715 31.4591 29.4104L27.5205 25.4295ZM27.487 34.7207C27.5579 34.7923 27.6282 34.8648 27.7023 34.9415L31.7326 31.0535C31.6523 30.9703 31.5631 30.8783 31.4679 30.7821L27.487 34.7207ZM31.683 34.9916L31.6867 34.988L27.7481 31.0071L27.7444 31.0107L31.683 34.9916ZM39.1936 38.6018L31.7041 31.0319L27.7232 34.9705L35.2127 42.5404L39.1936 38.6018ZM35.2088 42.5365C35.2119 42.5396 35.2149 42.5427 35.218 42.5458L39.1989 38.6072C39.1984 38.6067 39.1979 38.6062 39.1974 38.6057L35.2088 42.5365ZM35.218 42.5458C35.221 42.5488 35.2241 42.5519 35.2271 42.555L39.2003 38.6087C39.1998 38.6082 39.1994 38.6077 39.1989 38.6072L35.218 42.5458ZM39.4406 38.8515L39.2042 38.6125L35.2233 42.5511L35.4597 42.7901L39.4406 38.8515ZM35.4918 38.8195L35.4809 38.8304L39.4195 42.8113L39.4304 42.8004L35.4918 38.8195ZM35.6555 42.95C38.2318 45.1238 42.0836 45.0111 44.5251 42.5955L40.5865 38.6146C40.2238 38.9735 39.6483 38.9919 39.2668 38.67L35.6555 42.95ZM44.5251 42.5955C46.9667 40.1799 47.1206 36.3295 44.9744 33.7301L40.6561 37.2955C40.9739 37.6805 40.9493 38.2557 40.5865 38.6146L44.5251 42.5955ZM40.8569 33.5115L40.8459 33.5224L44.7845 37.5033L44.7955 37.4924L40.8569 33.5115ZM33.7822 30.342L40.8357 37.4713L44.8166 33.5327L37.7631 26.4034L33.7822 30.342Z" fill="#3F72AF" mask="url(#path-2-inside-1_171_3306)"/>
<path d="M26.4096 17.0773C28.4171 19.0848 28.4171 22.3396 26.4096 24.3471C24.4021 26.3545 21.1473 26.3545 19.1398 24.3471C18.5117 23.7189 18.2529 23.3641 18.1557 23.1499C18.112 23.0534 18.111 23.0499 18.1557 22.948C18.2523 22.7282 18.5041 22.3756 19.1005 21.7449C19.4807 21.3429 19.9338 20.8948 20.4836 20.3513C20.7777 20.0606 21.0993 19.7426 21.4522 19.3897C21.8265 19.0153 22.1624 18.6758 22.4677 18.3672C23.035 17.7936 23.4971 17.3265 23.9054 16.94C24.5526 16.3273 24.8884 16.0947 25.0776 16.0149C25.0965 16.007 25.1011 15.9999 25.1074 15.9979C25.1161 15.9952 25.1279 16.0025 25.1846 16.0316C25.4097 16.147 25.7623 16.4301 26.4096 17.0773Z" stroke="#3F72AF" stroke-width="2.8"/>
<path d="M13.9875 19.3247L18.6124 23.9495" stroke="#3F72AF" stroke-width="2.8" stroke-linecap="round"/>
<path d="M17.6873 15.6249L21.3871 19.3247" stroke="#3F72AF" stroke-width="2.8" stroke-linecap="round"/>
<path d="M26.4746 24.412L30.1745 28.1118" stroke="#3F72AF" stroke-width="2.8" stroke-linecap="round"/>
<path d="M21.3872 11.9249L26.4745 17.0122" stroke="#3F72AF" stroke-width="2.8" stroke-linecap="round"/>
</svg>
