<svg width="24" height="24" viewBox="0 0 24 24" fill="none" xmlns="http://www.w3.org/2000/svg">
<path fill-rule="evenodd" clip-rule="evenodd" d="M4.83509 10.5983C5.11218 10.1206 5.72409 9.9579 6.20183 10.235L11.2018 13.135C11.2114 13.1405 11.2208 13.1462 11.2301 13.152C11.7058 13.4494 12.3944 13.4494 12.8701 13.152C12.8794 13.1462 12.8889 13.1405 12.8984 13.135L17.8984 10.235C18.3761 9.9579 18.9881 10.1206 19.2651 10.5983C19.5422 11.076 19.3796 11.688 18.9018 11.965L13.9148 14.8575C12.7973 15.5475 11.303 15.5475 10.1854 14.8575L5.1984 11.965C4.72065 11.688 4.55799 11.076 4.83509 10.5983Z" fill="#3F72AF" fill-opacity="0.45"/>
<path fill-rule="evenodd" clip-rule="evenodd" d="M11.1732 3.18171L4.73927 6.94309C3.67687 7.6903 3 8.79618 3 10.1V18.4C3 19.8477 4.15228 21 5.6 21H18.4C19.8477 21 21 19.8477 21 18.4V10.1C21 8.79618 20.3231 7.6903 19.2607 6.94308L12.8268 3.18171C12.3208 2.93943 11.6792 2.93943 11.1732 3.18171ZM10.2528 1.40557C11.3343 0.864809 12.6657 0.864809 13.7472 1.40557C13.7667 1.41532 13.7859 1.4257 13.8047 1.4367L20.3047 5.2367C20.3267 5.24958 20.3482 5.26329 20.3692 5.27781C21.8896 6.33039 23 8.01603 23 10.1V18.4C23 20.9523 20.9523 23 18.4 23H5.6C3.04771 23 1 20.9523 1 18.4V10.1C1 8.01603 2.1104 6.33039 3.63079 5.27781C3.65176 5.26329 3.67328 5.24958 3.6953 5.2367L10.1953 1.4367C10.2141 1.4257 10.2333 1.41532 10.2528 1.40557Z" fill="#3F72AF" fill-opacity="0.45"/>
</svg>
