<svg width="54" height="54" viewBox="0 0 54 54" fill="none" xmlns="http://www.w3.org/2000/svg">
<path d="M41.4403 10.35H38.0821V9C38.0821 7.65 37.1866 6.75 35.8433 6.75C34.5 6.75 33.6045 7.65 33.6045 9V10.35H25.097C23.7537 10.35 22.8582 11.25 22.8582 12.6C22.8582 13.95 23.7537 14.85 25.097 14.85H33.8284V16.2C33.8284 17.55 34.7239 18.45 36.0672 18.45C37.4104 18.45 38.306 17.55 38.306 16.2V14.85H41.6642C43.2313 14.85 44.7985 16.2 44.7985 18V21.15H8.97761V18C8.97761 16.2 10.5448 14.85 12.3358 14.85H15.694V16.2C15.694 17.55 16.5896 18.45 17.9328 18.45C19.2761 18.45 20.1716 17.55 20.1716 16.2V12.6V9C20.1716 7.65 19.2761 6.75 17.9328 6.75C16.5896 6.75 15.694 7.65 15.694 9V10.35H12.3358C7.85821 10.35 4.5 13.725 4.5 18V39.6C4.5 43.875 7.85821 47.25 12.3358 47.25H41.6642C45.9179 47.25 49.5 43.875 49.5 39.6V18C49.2761 13.725 45.9179 10.35 41.4403 10.35ZM41.4403 42.75H12.3358C10.5448 42.75 8.97761 41.4 8.97761 39.6V25.65H44.7985V39.6C44.7985 41.4 43.2313 42.75 41.4403 42.75Z" fill="#3F72AF"/>
</svg>
