<svg width="33" height="33" viewBox="0 0 33 33" fill="none" xmlns="http://www.w3.org/2000/svg">
<g filter="url(#filter0_i_234_3148)">
<path d="M5.67439 26.3559H8.98878C10.7123 26.3559 12.3032 25.693 13.4964 24.4998L27.1517 10.8445C29.1403 8.85585 29.1403 5.54146 27.1517 3.55282C26.2236 2.49222 24.8979 1.96191 23.5721 1.96191C22.2464 1.96191 20.9206 2.49222 19.86 3.42025L6.20469 17.2081C5.01151 18.4013 4.34863 20.1248 4.34863 21.8483V25.1627C4.34863 25.8256 5.01151 26.3559 5.67439 26.3559ZM7.00015 21.7157C7.00015 20.6551 7.39788 19.7271 8.06075 19.0642L18.932 8.19297L20.788 9.91646C21.0532 10.1816 21.4509 10.3142 21.7161 10.3142C22.1138 10.3142 22.3789 10.1816 22.6441 9.91646C23.1744 9.38616 23.1744 8.5907 22.6441 8.0604L20.788 6.20434L21.7161 5.27631C22.2464 4.87858 22.9092 4.61343 23.5721 4.61343C24.235 4.61343 24.8979 4.87858 25.2956 5.40888C26.2236 6.33691 26.2236 8.0604 25.2956 8.98843L11.6403 22.6437C10.9774 23.3066 9.91681 23.7043 8.98878 23.7043H7.00015V21.7157Z" fill="#3F72AF"/>
<path d="M29.8031 28.4771H3.28792C2.49246 28.4771 1.96216 29.0074 1.96216 29.8028C1.96216 30.5983 2.49246 31.1286 3.28792 31.1286H29.8031C30.5985 31.1286 31.1288 30.5983 31.1288 29.8028C31.1288 29.0074 30.5985 28.4771 29.8031 28.4771Z" fill="#3F72AF"/>
</g>
<defs>
<filter id="filter0_i_234_3148" x="0.636475" y="0.63623" width="35.8181" height="35.8184" filterUnits="userSpaceOnUse" color-interpolation-filters="sRGB">
<feFlood flood-opacity="0" result="BackgroundImageFix"/>
<feBlend mode="normal" in="SourceGraphic" in2="BackgroundImageFix" result="shape"/>
<feColorMatrix in="SourceAlpha" type="matrix" values="0 0 0 0 0 0 0 0 0 0 0 0 0 0 0 0 0 0 127 0" result="hardAlpha"/>
<feOffset dx="4" dy="4"/>
<feGaussianBlur stdDeviation="2"/>
<feComposite in2="hardAlpha" operator="arithmetic" k2="-1" k3="1"/>
<feColorMatrix type="matrix" values="0 0 0 0 0 0 0 0 0 0 0 0 0 0 0 0 0 0 0.25 0"/>
<feBlend mode="normal" in2="shape" result="effect1_innerShadow_234_3148"/>
</filter>
</defs>
</svg>
