<svg width="14" height="14" viewBox="0 0 14 14" fill="none" xmlns="http://www.w3.org/2000/svg">
<path d="M12.3427 9.97621L11.2132 8.84526C10.9754 8.60716 10.6187 8.60716 10.3809 8.84526C10.1431 9.08335 10.1431 9.4405 10.3809 9.67859L11.5105 10.8095C11.6888 10.9881 11.6888 11.2857 11.5105 11.4643C11.3321 11.6429 11.0349 11.6429 10.8565 11.4643L9.07309 9.67859C9.19198 9.55954 9.31088 9.50002 9.42977 9.38097C10.3215 8.48811 10.8565 7.23811 10.8565 5.98811C10.8565 4.67859 10.3809 3.48812 9.42977 2.59526C7.52744 0.690497 4.49559 0.690497 2.59326 2.59526C0.69092 4.50002 0.69092 7.53573 2.59326 9.4405C3.48498 10.3334 4.73338 10.8691 5.98179 10.8691C6.69517 10.8691 7.40854 10.6905 8.00302 10.3929L9.96481 12.3572C10.262 12.6548 10.7376 12.8334 11.1538 12.8334C11.5699 12.8334 11.986 12.6548 12.3427 12.3572C12.9967 11.6429 12.9967 10.5714 12.3427 9.97621ZM3.42553 8.48811C1.99878 7.05954 1.99878 4.73812 3.42553 3.36907C4.1389 2.65478 5.03062 2.29764 5.98179 2.29764C6.93296 2.29764 7.82468 2.65478 8.53805 3.36907C9.25143 4.08335 9.60812 4.97621 9.60812 5.92859C9.60812 6.88097 9.25143 7.83335 8.53805 8.48811C7.82468 9.14288 6.93296 9.55954 5.98179 9.55954C5.03062 9.55954 4.07945 9.2024 3.42553 8.48811Z" fill="#F1F1F1"/>
</svg>
