<svg width="14" height="14" viewBox="0 0 14 14" fill="none" xmlns="http://www.w3.org/2000/svg">
<path d="M13.3418 5.43887L12.1298 2.03848C11.9645 1.60669 11.5789 1.22887 11.083 1.17489C10.5872 1.12092 10.0914 1.33682 9.81592 1.71464L9.59555 1.98451C8.82426 1.60669 7.9428 1.39079 7.00623 1.39079C3.75582 1.44477 1.1665 3.98156 1.1665 7.11207C1.1665 10.2426 3.75582 12.8334 7.00623 12.8334C9.59555 12.8334 11.9094 11.1062 12.6256 8.67733C12.6807 8.40746 12.5154 8.08361 12.24 8.02964C11.9645 7.97566 11.6339 8.13759 11.5789 8.40746C11.0279 10.4045 9.15481 11.7539 7.00623 11.7539C4.41692 11.7539 2.26834 9.70284 2.26834 7.11207C2.26834 4.57528 4.41692 2.47028 7.00623 2.47028C7.8877 2.47028 8.71408 2.68618 9.48537 3.11797C9.70573 3.27989 10.0363 3.22592 10.2016 2.95605L10.6974 2.25438C10.7525 2.25438 10.8627 2.25438 10.8627 2.25438C10.9178 2.25438 11.0279 2.30836 11.0279 2.4163L12.24 5.81669C12.295 5.92464 12.24 6.03259 12.1298 6.08656H12.0747L8.38353 6.14053C8.27335 6.14053 8.21825 6.08656 8.21825 6.03259C8.21825 5.97861 8.16316 5.92464 8.21825 5.81669L8.82426 4.9531C8.87936 4.84515 8.93445 4.68323 8.87936 4.5213C8.82426 4.35938 8.76917 4.25143 8.6039 4.14348C8.10807 3.87361 7.55715 3.76566 7.00623 3.76566C5.13311 3.76566 3.59054 5.27694 3.59054 7.11207C3.59054 8.9472 5.13311 10.4585 7.00623 10.4585C8.21825 10.4585 9.37518 9.81079 9.98119 8.78528C10.1465 8.51541 10.0363 8.19156 9.76082 8.02964C9.48537 7.86771 9.15481 7.97566 8.98954 8.24553C8.5488 8.9472 7.83261 9.37899 6.95114 9.37899C5.68403 9.37899 4.63729 8.35348 4.63729 7.11207C4.63729 5.87066 5.68403 4.84515 6.95114 4.84515C7.11642 4.84515 7.28169 4.84515 7.44697 4.89912L7.28169 5.169C7.00623 5.54682 6.95114 6.08656 7.17151 6.51835C7.39188 6.95015 7.8877 7.22002 8.32844 7.22002L12.0196 7.16605C12.24 7.16605 12.4603 7.11207 12.6256 7.00412C13.2867 6.73425 13.5622 6.08656 13.3418 5.43887Z" fill="#F1F1F1"/>
</svg>
