<svg width="30" height="30" viewBox="0 0 30 30" fill="none" xmlns="http://www.w3.org/2000/svg">
<path fill-rule="evenodd" clip-rule="evenodd" d="M2.5 6.875C2.5 4.42809 4.4489 2.5 6.89246 2.5H18.331C19.8461 2.5 21.1559 3.17136 22.1035 4.11366L25.8428 7.83217C27.018 8.85427 27.5 10.2129 27.5 11.625V23.125C27.5 25.5719 25.5511 27.5 23.1075 27.5H21.0964C20.406 27.5 19.8464 26.9404 19.8464 26.25V20.125C19.8464 19.6969 19.5327 19.375 19.0852 19.375H10.9148C10.4673 19.375 10.1536 19.6969 10.1536 20.125V25H17.1997C17.8901 25 18.4497 25.5596 18.4497 26.25C18.4497 26.9404 17.8901 27.5 17.1997 27.5H6.89246C4.48242 27.5 2.5 25.6048 2.5 23.25V6.875ZM7.65363 25H6.89246C5.78295 25 5 24.1452 5 23.25V6.875C5 5.82191 5.81646 5 6.89246 5H18.331C19.0785 5 19.7798 5.32864 20.3406 5.88634L24.1116 9.63634C24.1343 9.65889 24.1578 9.68056 24.1821 9.70131C24.7385 10.1755 25 10.8026 25 11.625V23.125C25 24.1781 24.1835 25 23.1075 25H22.3464V20.125C22.3464 18.3031 20.9003 16.875 19.0852 16.875H10.9148C9.09974 16.875 7.65363 18.3031 7.65363 20.125V25Z" fill="#3F72AF"/>
</svg>
