<svg width="52" height="52" viewBox="0 0 52 52" fill="none" xmlns="http://www.w3.org/2000/svg">
<path d="M44.8048 37.7177C42.6334 32.4116 38.5075 28.432 33.5132 26.4422C36.3361 24.2313 38.0732 20.6939 38.0732 16.9354C38.0732 9.86058 32.6446 4.33337 25.913 4.33337C19.1814 4.33337 13.7527 9.86059 13.7527 16.7143C13.7527 20.4728 15.4899 24.0102 18.3128 26.2211C13.3184 28.2109 9.19263 32.1905 7.02115 37.4966C6.15256 39.7075 6.36971 42.3606 7.6726 44.3504C8.97548 46.5613 11.3641 47.6667 13.9699 47.6667H38.0732C40.679 47.6667 42.8505 46.3402 44.3705 44.3504C45.6734 42.3606 45.8906 39.9286 44.8048 37.7177ZM18.0957 16.7143C18.0957 12.2926 21.57 8.75514 25.913 8.75514C30.2559 8.75514 33.7303 12.2926 33.7303 16.7143C33.7303 21.1361 30.2559 24.6735 25.913 24.6735C21.57 24.6735 18.0957 21.1361 18.0957 16.7143ZM40.679 42.1395C40.0276 43.0239 39.159 43.6871 38.0732 43.6871H13.7527C12.667 43.6871 11.7984 43.2449 11.147 42.1395C10.4955 41.2551 10.4955 40.3708 10.9298 39.4864C13.5356 33.0749 19.3986 29.0953 25.913 29.0953C32.4274 29.0953 38.2904 33.0749 40.8962 39.2654C41.3305 40.1497 41.1133 41.2551 40.679 42.1395Z" fill="#3F72AF"/>
</svg>
